<svg width="19" height="20" viewBox="0 0 19 20" fill="none" xmlns="http://www.w3.org/2000/svg">
<path d="M4.66667 15.4993V13.2077M4.66667 13.2077V11.8327C4.66667 11.4009 4.66667 11.1846 4.80783 11.0498C4.949 10.916 5.17542 10.916 5.62917 10.916H6.27083C6.93542 10.916 7.47442 11.4293 7.47442 12.0618C7.47442 12.6943 6.93542 13.2077 6.27083 13.2077H4.66667ZM17.5 10.916H16.2973C15.5411 10.916 15.1625 10.916 14.9278 11.1397C14.6932 11.3633 14.6932 11.7236 14.6932 12.4441V13.2077M14.6932 13.2077V15.4993M14.6932 13.2077H16.6979M12.6875 13.2077C12.6875 14.4727 11.6104 15.4993 10.2813 15.4993C9.9815 15.4993 9.83208 15.4993 9.71933 15.4379C9.45258 15.2913 9.47917 14.9933 9.47917 14.7358V11.6796C9.47917 11.422 9.45167 11.1241 9.71933 10.9774C9.83117 10.916 9.9815 10.916 10.2813 10.916C11.6104 10.916 12.6875 11.9427 12.6875 13.2077Z" stroke="#BF9E5C" stroke-width="1.5" stroke-linecap="round" stroke-linejoin="round"/>
<path d="M12 19.1663H8.08308C5.09475 19.1663 3.59875 19.1663 2.56108 18.4348C2.26578 18.2277 2.00182 17.9792 1.77733 17.6969C1 16.7198 1 15.3136 1 12.4994V10.1665C1 7.45042 1 6.09192 1.42992 5.00751C2.12108 3.26309 3.58225 1.88809 5.43575 1.23726C6.58708 0.833008 8.029 0.833008 10.9165 0.833008C12.5647 0.833008 13.3897 0.833008 14.0478 1.06401C15.1066 1.43617 15.9417 2.22176 16.3368 3.21817C16.5833 3.83784 16.5833 4.61426 16.5833 6.16617V8.16634" stroke="#BF9E5C" stroke-width="1.5" stroke-linecap="round" stroke-linejoin="round"/>
<path d="M1 9.99967C1 9.18937 1.32189 8.41226 1.89486 7.83929C2.46783 7.26632 3.24495 6.94442 4.05525 6.94442C4.66575 6.94442 5.38533 7.05076 5.97842 6.89217C6.23757 6.82243 6.47383 6.68579 6.66351 6.49594C6.8532 6.30609 6.98964 6.06972 7.05917 5.81051C7.21775 5.21742 7.11142 4.49784 7.11142 3.88734C7.11166 3.0772 7.43366 2.30032 8.0066 1.72755C8.57955 1.15477 9.35652 0.833008 10.1667 0.833008" stroke="#BF9E5C" stroke-width="1.5" stroke-linecap="round" stroke-linejoin="round"/>
</svg>
